<svg width="183" height="70" viewBox="0 0 183 70" fill="none" xmlns="http://www.w3.org/2000/svg">
<g clip-path="url(#clip0_60:516)">
<path d="M42.6363 18.7858C43.0843 18.9953 43.4036 19.2263 43.7516 19.293C44.465 19.4269 45.1876 19.5065 45.9131 19.5312C47.1833 19.5693 48.4558 19.5693 49.7261 19.5312C50.2909 19.5121 50.8485 19.6574 51.4348 19.3383C51.9114 19.0834 52.593 19.5217 53.1029 19.0668C53.7345 19.1954 54.3112 18.9167 54.9117 18.8286C56.1676 18.6429 57.3949 18.3142 58.6246 18.0117C59.2657 17.8522 59.8829 17.6045 60.5145 17.4044C60.5507 17.3964 60.5883 17.397 60.6243 17.4061C60.6603 17.4152 60.6937 17.4325 60.7218 17.4568C60.7647 17.5521 60.8123 17.695 60.7671 17.7688C60.6435 17.9237 60.5064 18.0671 60.3572 18.1975C59.5135 19.0382 58.6532 19.8646 57.8334 20.7244C56.0809 22.5945 54.4755 24.597 53.0314 26.7141C52.1266 28.1463 51.3923 29.6794 50.8437 31.282C50.7222 31.7012 50.6722 32.1394 50.5768 32.6419C50.9796 32.6419 51.3704 32.6681 51.7565 32.6419C53.0148 32.5395 54.049 33.0873 54.9451 33.8494C56.3739 35.0614 57.4979 36.5917 58.2267 38.3172C58.8844 39.8748 59.5898 41.4133 59.8805 43.1186C60.0807 44.2903 60.3572 45.4621 60.6098 46.6267C60.8219 47.6103 60.7408 48.5558 60.7861 49.5179C60.8314 50.4801 60.7861 51.5018 60.7861 52.4925C60.7861 52.6855 60.7313 52.7736 60.5359 52.9141C59.77 53.4372 58.9522 53.8801 58.0956 54.2359C57.2972 54.5979 56.5346 55.0313 55.6862 55.3243C54.8379 55.6172 53.9632 55.9459 53.0934 56.2459C52.2236 56.546 51.3728 56.6865 50.522 56.9366C48.2795 57.5963 45.9726 57.4844 43.692 57.382C42.227 57.3128 40.8314 56.7379 39.7432 55.7553C39.1617 55.2361 38.7685 54.505 38.2942 53.8739C36.4759 55.3266 35.332 57.2581 34.3192 59.3134C33.2374 61.564 32.3175 63.8888 31.5667 66.2701C31.2211 67.3251 31.0305 68.4302 30.7516 69.5067C30.6852 69.6806 30.5971 69.8454 30.4895 69.9973C29.8556 69.6401 30.2512 68.866 29.8055 68.4612C29.877 67.7919 29.5315 67.2323 29.3289 66.6345C29.0644 65.8676 28.9714 65.0555 28.6283 64.3053C28.39 63.8075 28.2994 63.2526 28.0968 62.7406C27.8943 62.2285 27.6035 61.8308 27.4415 61.3473C27.1244 60.4398 26.7256 59.563 26.2499 58.7276C25.5993 57.5368 25.025 56.3245 24.0574 55.3481C23.8191 55.1099 23.6761 54.7884 23.4569 54.5312C23.2376 54.274 22.9803 54.0334 22.6562 53.7215C22.4631 53.9334 22.2606 54.0692 22.1795 54.2573C21.4193 56.0507 19.8441 56.7008 18.1401 57.1652C16.3671 57.6416 14.5345 57.501 12.7638 57.3462C11.1731 57.1681 9.60378 56.8339 8.0786 56.3484C5.90996 55.7101 3.87715 54.7908 1.85388 53.8262C1.38569 53.6009 0.939682 53.3322 0.521715 53.0236C0.340323 52.9084 0.194279 52.7454 0.0996699 52.5525C0.00506086 52.3596 -0.0344419 52.1444 -0.014488 51.9305C0.0522394 50.6635 -0.0740661 49.3846 0.0284082 48.1199C0.168525 46.6208 0.417825 45.134 0.774326 43.6711C1.01471 42.6328 1.32522 41.6119 1.70374 40.6155C2.5855 38.3053 3.56735 36.0476 5.40473 34.2876C6.5248 33.2159 7.76641 32.5085 9.37502 32.6467C9.64669 32.6705 9.92075 32.6467 10.2949 32.6467C10.1186 31.6512 9.93267 30.7176 9.49894 29.8626C8.91269 28.7146 8.30738 27.5738 7.63772 26.4688C7.17698 25.7352 6.67492 25.0283 6.13397 24.3516C5.02626 22.9016 3.82162 21.5283 2.5283 20.2409C1.6537 19.374 0.891099 18.3999 0.0236419 17.4092C0.769559 17.614 1.45352 17.8331 2.16845 17.9855C3.07881 18.1856 3.98201 18.4238 4.88521 18.6357C5.93855 18.8739 7.01573 18.993 8.06668 19.2573C8.76974 19.4254 9.48875 19.5181 10.2115 19.5336C11.9178 19.5812 13.6289 19.5955 15.3328 19.5336C16.1903 19.4683 17.0352 19.288 17.8446 18.9977C17.9447 18.9667 18.0162 18.8358 18.0829 18.7595C18.0396 18.5882 17.9722 18.4238 17.8828 18.2713C16.7746 16.9162 17.2083 15.311 17.2107 13.8011C17.2107 13.2223 17.6373 12.6436 17.8708 12.0649C18.4476 10.6359 19.3317 9.3951 20.2897 8.17572C21.5123 6.61577 22.9421 5.2654 24.3839 3.94361C25.8432 2.57918 27.481 1.41907 29.2526 0.495061C29.5172 0.359309 29.7412 0.0925692 30.0129 0.040174C30.2581 -0.0190543 30.5134 -0.0235127 30.7605 0.0271205C31.0077 0.0777537 31.2406 0.182228 31.4427 0.333106C32.7868 1.36434 34.3239 2.10502 35.6037 3.25533C36.5736 4.12462 37.708 4.84624 38.5587 5.82984C39.5342 6.90262 40.4544 8.0242 41.316 9.19028C42.2024 10.4688 42.9291 11.8509 43.4799 13.3057C43.7015 13.8749 43.6586 14.4798 43.854 15.0538C43.9723 15.394 43.9673 15.7649 43.8397 16.1017C43.5252 16.7804 43.5323 17.5545 43.1534 18.1999C42.999 18.4103 42.8259 18.6064 42.6363 18.7858ZM11.894 36.9359C12.0732 36.9082 12.2557 36.9082 12.4349 36.9359C13.5446 37.4144 14.7415 37.6577 15.9501 37.6504C16.1002 37.6504 16.2956 37.6266 16.3981 37.7052C16.8747 38.0648 17.43 37.9672 17.8613 37.8457C18.3284 37.6797 18.8264 37.6188 19.3198 37.6671C19.856 37.7552 20.273 37.4289 20.7711 37.4075C21.6743 37.3718 22.5251 37.0479 23.3759 36.8002C25.1703 36.2555 26.8978 35.5109 28.5258 34.5805C28.9333 34.3566 29.1406 34.1876 29.1073 33.7493C29.0262 32.7133 29.3146 31.6464 28.869 30.639C28.8833 29.0362 28.328 27.5429 27.9157 26.0353C27.4629 24.342 26.605 22.8345 25.7375 21.3507C24.9988 20.0837 23.8072 19.1644 22.6824 18.0165C22.711 19.3526 22.0461 20.2671 21.2811 21.0054C20.2492 22.0009 18.8527 22.4058 17.4538 22.6344C16.7794 22.7464 16.0787 22.5868 15.4067 22.8726C14.9992 23.0488 14.5917 22.6511 14.2032 22.6701C12.7281 22.7416 11.3077 22.432 9.87786 22.1676C9.07474 22.0176 8.27878 21.8247 7.48043 21.6389C7.32417 21.585 7.17336 21.5164 7.03002 21.4341C7.98327 22.7487 9.23203 23.7514 10.1829 25.0303C10.9063 25.9862 11.577 26.9808 12.1919 28.0097C12.8665 29.1998 13.3589 30.4843 13.6527 31.8203C13.9601 33.0825 13.7886 33.5922 13.381 34.9854C13.1308 35.7928 12.4326 36.2214 11.8844 36.9359H11.894ZM48.911 36.8288C47.6146 35.7189 47.0403 34.3352 47.2142 32.6514C47.2428 32.3775 47.1833 32.0918 47.2262 31.8203C47.312 31.3058 47.3453 30.7509 47.5741 30.3008C48.0078 29.4506 48.1103 28.4217 48.8872 27.7477C49.6879 25.9901 51.0153 24.6207 52.2736 23.2012C52.705 22.7249 53.1935 22.2724 53.7726 21.6937C53.5303 21.6669 53.2857 21.6669 53.0434 21.6937C52.2522 21.9128 51.4505 22.0916 50.6412 22.2295C49.7475 22.3891 48.8562 22.5344 47.9578 22.6392C47.3167 22.713 46.6566 22.4939 46.0179 22.8535C45.7987 22.9774 45.4174 22.8368 45.1147 22.794C44.8931 22.763 44.681 22.6535 44.4641 22.6463C43.8161 22.6228 43.1709 22.5503 42.5338 22.4296C40.5629 22.0724 38.4825 20.4672 38.0702 18.0641C37.2671 18.962 36.402 19.7193 35.7085 20.6505C34.7314 21.9366 34.057 23.3703 33.4064 24.8231C33.2169 25.3405 33.0577 25.8685 32.9298 26.4045C32.7773 26.8975 32.5771 27.3762 32.4532 27.8763C32.3293 28.4289 32.4127 29.0671 32.1744 29.5434C31.8336 30.2341 32.1934 30.9724 31.9122 31.5773C31.5857 32.2918 31.824 32.9634 31.7335 33.6469C31.6715 34.1233 31.8455 34.34 32.3269 34.5996C34.2596 35.6094 36.2066 36.543 38.3538 37.0193C39.5311 37.2813 40.675 37.679 41.9023 37.6504C42.2168 37.6504 42.6172 37.5504 42.8221 37.7052C42.9979 37.8329 43.2034 37.9133 43.4192 37.9387C43.6349 37.9642 43.8536 37.9338 44.0542 37.8505C44.7048 37.6123 45.3459 37.6838 45.9917 37.6457C46.1445 37.644 46.2965 37.624 46.4445 37.5861C47.2452 37.3456 48.0531 37.0907 48.9015 36.8288H48.911ZM41.2398 50.0347C41.1918 49.645 41.117 49.2591 41.0157 48.8797C40.6392 47.8056 40.358 46.6695 39.7932 45.7002C39.3072 44.8092 38.7493 43.9593 38.125 43.159C37.4697 42.366 36.7905 41.5824 36.1446 40.7774C35.8158 40.3702 35.2915 40.1273 34.9149 39.7486C33.5899 38.4197 31.9503 37.5313 30.4275 36.4691C30.2789 36.6438 30.1074 36.7976 29.9175 36.9264C28.2779 37.6957 26.9124 38.8317 25.6279 40.0677C24.882 40.7822 24.1647 41.5229 23.4354 42.254C23.2505 42.4043 23.0827 42.5744 22.935 42.7613C21.8912 44.4284 20.7902 46.0503 20.1682 47.9246C19.9537 48.5772 19.6391 49.2702 19.8917 50.03C21.2001 49.5537 22.4679 49.7323 23.6475 50.2896C24.7891 50.8302 25.5707 51.8543 26.4453 52.7355C26.6389 52.9644 26.8097 53.2117 26.9553 53.4738C27.1393 53.7078 27.299 53.96 27.4319 54.2264C27.8895 55.3886 28.5425 56.4555 28.9953 57.6273C29.6077 59.1458 30.0862 60.7149 30.4251 62.3166C30.9117 60.5045 31.4997 58.721 32.1863 56.9747C33.0823 54.8313 34.1666 52.9879 35.7967 51.3184C36.5641 50.5349 37.5554 50.1538 38.5278 49.8585C38.8978 49.7333 39.2891 49.6833 39.6787 49.7116C40.0684 49.7398 40.4484 49.8456 40.7965 50.0228C40.8894 50.0895 41.0682 50.0347 41.2302 50.0347H41.2398ZM7.95706 35.4093C7.12058 36.4691 6.18878 37.417 5.53581 38.5316C4.75076 39.9016 4.13537 41.3619 3.70318 42.8804C3.4543 43.7774 3.27504 44.6923 3.16698 45.6169C3.01446 46.7553 2.7404 47.9032 2.87624 49.0797C2.94535 49.6965 2.93582 50.3253 2.96203 50.9469C3.45296 51.1993 4.00346 51.3779 4.42289 51.7161C5.78127 52.8212 7.44469 53.2475 9.02708 53.8239C10.7597 54.4827 12.5997 54.8138 14.4535 54.8003C14.9682 54.8003 15.4853 54.8289 15.9977 54.8003C16.5255 54.7665 17.0494 54.6868 17.5634 54.5622C18.0107 54.4235 18.4492 54.2581 18.8765 54.0668C18.5572 53.5547 18.1306 53.2928 17.8708 52.8284C17.398 52.0105 17.1513 51.0817 17.1559 50.1371C17.1527 48.734 17.4767 47.3494 18.102 46.0932C19.2268 43.7521 20.752 41.7206 22.4917 39.8248C22.618 39.6867 22.9088 39.6176 22.8158 39.2532C22.618 39.371 22.4078 39.4669 22.1891 39.539C20.7926 39.8367 19.3674 39.9772 17.9638 40.2392C17.2727 40.3678 16.5339 40.2654 15.819 40.2606C15.1703 40.2524 14.5235 40.187 13.8863 40.0653C13.219 39.9415 12.5922 39.7438 11.944 39.5747C11.1093 39.3345 10.3561 38.8709 9.76585 38.2339C9.11049 37.5813 8.51709 36.9169 8.35266 35.9595C8.32406 35.7904 8.12626 35.6499 7.95706 35.4093ZM37.9653 39.3461C37.9844 39.4247 37.982 39.4985 38.0154 39.5319C39.5923 41.0823 40.9548 42.8364 42.0667 44.7476C42.9008 46.1932 43.5943 47.6365 43.6372 49.3369C43.6372 49.6203 43.9208 50.0204 43.8111 50.1562C43.5371 50.492 43.7039 50.835 43.6229 51.1612C43.499 51.659 43.4799 52.1925 43.0914 52.6069C42.7854 52.946 42.5051 53.3075 42.2526 53.6881C42.2153 53.7551 42.1926 53.8292 42.1861 53.9055C42.1795 53.9819 42.1892 54.0587 42.2145 54.1311C42.2526 54.2263 42.4313 54.2835 42.56 54.3192C43.4991 54.6104 44.4728 54.7754 45.4555 54.8098C46.992 54.8562 48.5278 54.696 50.0216 54.3335C51.598 53.9563 53.1349 53.43 54.6115 52.7617C55.548 52.3163 56.4393 51.7971 57.3401 51.2875C57.8025 51.0255 57.9478 50.8111 57.9383 50.3348C57.9216 49.3441 58.0074 48.3462 57.9121 47.3626C57.8168 46.379 57.638 45.424 57.4926 44.4618C57.2543 42.859 56.6872 41.3919 56.0461 39.9367C55.3331 38.2341 54.2197 36.7284 52.8003 35.5474C52.6681 35.7334 52.5532 35.9311 52.4571 36.1381C51.8923 37.7433 51.4157 38.3054 50.0525 39.0865C48.7482 39.825 47.2786 40.2231 45.7796 40.244C44.5475 40.2749 43.2821 40.4821 42.0715 40.032C41.3565 40.1916 40.7155 39.8367 40.0291 39.7748C39.3331 39.6739 38.6439 39.5307 37.9653 39.3461ZM41.3017 15.5015C41.1683 15.0895 41.0944 14.8418 41.0086 14.6013C40.5968 13.3415 40.0461 12.1313 39.3666 10.9932C38.2977 9.32948 36.986 7.83479 35.475 6.55861C34.2868 5.59743 33.0317 4.72197 31.7192 3.93885C30.7302 3.31726 30.1535 3.27915 29.1931 3.87931C29.1287 3.9198 29.0858 3.99601 29.0239 4.04364C27.787 4.97723 26.4763 5.7965 25.2585 6.77058C24.0726 7.76062 23 8.87885 22.0604 10.1048C21.0476 11.3623 20.4065 12.8818 19.856 14.4108C19.7621 14.7704 19.7015 15.1379 19.6749 15.5087C19.8131 15.5384 19.9561 15.5384 20.0943 15.5087C21.2311 14.9585 22.3392 15.3181 23.4068 15.673C24.7986 16.1374 25.8638 17.1544 26.6932 18.2928C27.6464 19.5931 28.5639 20.9601 29.0763 22.5249C29.5172 23.8419 30.1916 25.0779 30.3894 26.645C30.9351 24.8207 31.4356 23.1608 32.2173 21.6246C33.2039 19.6884 34.2024 17.7474 36.1065 16.4613C36.763 15.971 37.5172 15.6275 38.318 15.4539C39.288 15.2705 39.6335 15.2157 40.7607 15.5158C40.9426 15.5307 41.1256 15.5259 41.3065 15.5015H41.3017Z" fill="white"/>
<path d="M72.5302 28.7293V36.1933H73.9005C73.9005 36.7339 73.9148 37.2364 73.9005 37.7389C73.909 37.8251 73.8977 37.9122 73.8676 37.9934C73.8375 38.0747 73.7892 38.148 73.7266 38.2079C73.6639 38.2678 73.5884 38.3126 73.5058 38.3391C73.4233 38.3655 73.3358 38.3728 73.2499 38.3605C71.8598 38.3732 70.4696 38.3732 69.0795 38.3605C68.9939 38.3728 68.9066 38.3655 68.8242 38.3392C68.7418 38.3129 68.6665 38.2682 68.6039 38.2086C68.5413 38.149 68.493 38.076 68.4627 37.995C68.4323 37.9141 68.4208 37.8273 68.4289 37.7413C68.4098 37.265 68.4289 36.7886 68.4289 36.2361H70.0732V27.6481H69.027C68.9499 27.6553 68.872 27.6459 68.7988 27.6205C68.7256 27.5951 68.6587 27.5542 68.6026 27.5007C68.5466 27.4471 68.5027 27.3822 68.4739 27.3102C68.4452 27.2383 68.4323 27.161 68.436 27.0836C68.4074 26.5787 68.436 26.0691 68.436 25.5332H74.5178C75.3781 28.6293 76.236 31.7087 77.1392 34.9405C77.3584 33.533 77.8422 32.3589 78.1258 31.1419C78.4356 29.8034 78.9766 28.5221 79.1815 27.1622C79.2602 26.6287 79.5461 26.1262 79.7606 25.5451H85.5373V27.6195H84.2194V36.2075H85.5516V38.351H80.1372V36.2599H81.4765V28.6388C81.0475 30.013 80.5518 31.3586 80.1991 32.7304C79.7916 34.3094 79.1768 35.8265 78.8956 37.4388C78.7716 38.1533 78.4451 38.3796 77.7159 38.3915C76.9867 38.4034 76.205 38.3915 75.3709 38.3915C74.4391 35.2073 73.5025 32.0278 72.5302 28.7293Z" fill="white"/>
<path d="M79.6343 7.91882H85.5564V9.7479H84.2051V18.3217H85.523V20.4651H80.1443V18.3574H81.4836V10.7791C81.2453 12.1914 80.6328 13.4894 80.2801 14.866C80.0124 15.9732 79.6766 17.0629 79.2744 18.1287C78.9813 18.8813 78.8264 19.6863 78.6048 20.4818H75.3637C74.3882 17.3444 73.4628 14.1896 72.5874 11.0173C72.6041 11.0173 72.5707 11.0173 72.5493 11.0173C72.5278 11.0173 72.473 11.0744 72.473 11.103C72.473 13.4846 72.473 15.8662 72.473 18.324H73.9029C73.9029 18.8718 73.9148 19.341 73.9029 19.8078C73.8862 20.3174 73.7146 20.4937 73.1999 20.4984C71.6508 20.4984 70.1018 20.4984 68.4336 20.4984C68.4002 19.8149 68.4336 19.1243 68.4146 18.3931H70.0303V9.81934H68.4717V7.91406H74.5392C75.3733 10.9196 76.2074 13.9347 77.0987 17.1237C77.8064 13.8585 78.8622 10.9006 79.6343 7.91882Z" fill="white"/>
<path d="M125.412 37.2029V39.5297H126.775V41.4112H121.354V39.5654H122.493V31.075C122.421 31.0417 122.35 30.9797 122.288 30.9893C122.049 31.0226 121.778 31.1846 121.599 31.1083C121.199 30.9345 121.346 30.5058 121.325 30.17C121.325 30.0509 121.325 29.9318 121.325 29.8128C121.349 29.2459 121.504 29.0983 122.107 29.0792C123.093 29.0792 124.078 29.0792 125.148 29.0792V30.3296C125.822 29.8032 126.284 29.2674 127.087 29.0221C128.062 28.7244 128.865 28.8839 129.709 29.2412C130.409 29.5492 131.003 30.0552 131.419 30.6967C131.835 31.3382 132.054 32.0873 132.049 32.8517C132.049 33.4471 132.049 34.0425 132.049 34.6355C132.063 35.1089 131.975 35.5798 131.792 36.0167C131.609 36.4536 131.335 36.8466 130.989 37.1695C130.512 37.6054 130.14 38.2103 129.416 38.2508C128.567 38.3008 127.693 38.4151 126.878 38.2508C126.37 38.1626 125.951 37.6101 125.412 37.2029ZM125.376 33.5209C125.376 35.0737 125.453 35.2928 126.172 35.9454C126.549 36.2859 127.004 36.617 127.49 36.4336C128.041 36.2264 128.822 36.2526 128.958 35.4071C128.982 35.2738 129.17 35.169 129.177 35.0308C129.203 34.6186 129.274 34.2105 129.389 33.8138C129.49 33.4637 129.247 33.0255 129.194 32.623C129.096 31.8466 128.436 31.1012 127.709 30.9869C127.325 30.937 126.935 30.9983 126.584 31.1633C126.234 31.3283 125.938 31.5902 125.731 31.9181C125.446 32.4014 125.322 32.9626 125.376 33.5209Z" fill="white"/>
<path d="M145.156 59.3234V57.9325C145.455 57.9044 145.755 57.894 146.054 57.9016C146.672 57.9468 147.089 57.7348 147.308 57.1275C147.444 56.7512 147.804 56.4631 147.785 56.0129C147.781 55.7121 147.71 55.4159 147.577 55.146C147.029 54.0719 146.602 52.9335 146.114 51.8285C145.611 50.6877 145.089 49.5564 144.563 48.3894H140.628C140.628 50.3424 140.628 52.2738 140.628 54.2053C140.616 54.3417 140.656 54.4776 140.741 54.5849C140.827 54.6922 140.95 54.7626 141.086 54.7817C141.374 54.8293 141.722 54.9031 141.939 54.5649C142.225 54.1564 142.356 53.6586 142.306 53.1622H143.736C143.736 53.4551 143.736 53.7599 143.736 54.0648C143.73 54.6382 143.499 55.1864 143.092 55.5911C142.686 55.9957 142.136 56.2242 141.562 56.2273C141.324 56.2273 141.086 56.2273 140.847 56.2273C140.294 56.2101 139.768 55.9837 139.376 55.5937C138.983 55.2038 138.754 54.6794 138.733 54.1267C138.733 52.381 138.733 50.6377 138.733 48.8872V48.3918H137.118V47.1867H138.688V45.1647L140.576 44.5312C140.735 45.3886 140.576 46.2484 140.678 47.1701H147.992V48.3275H146.586C146.599 48.5886 146.648 48.8467 146.731 49.0944C147.496 50.5233 147.949 52.0833 148.723 53.5051C148.8 53.6504 148.723 53.8719 148.847 54.0672C149.605 52.2167 150.365 50.3686 151.164 48.4228L149.734 48.3394V47.1986H153.938V48.2942C153.853 48.3338 153.762 48.3572 153.668 48.3633C153.192 48.3299 152.92 48.4561 152.737 48.9848C152.26 50.3328 151.564 51.5879 151.097 52.9454C150.885 53.5623 150.537 54.1362 150.301 54.7555C149.922 55.7486 149.41 56.6869 148.978 57.6586C148.779 58.1068 148.493 58.5114 148.137 58.8494C147.976 59.0121 147.783 59.1388 147.569 59.2209C147.355 59.303 147.127 59.3388 146.898 59.3257C146.347 59.3138 145.792 59.3234 145.156 59.3234Z" fill="white"/>
<path d="M119.139 9.54782H118.026V7.69971H121.813V12.6701C122.149 12.2581 122.306 12.039 122.488 11.8437C122.668 11.6201 122.903 11.4458 123.169 11.3367C123.435 11.2276 123.725 11.1874 124.01 11.2197C124.654 11.3054 125.285 11.1697 125.96 11.3817C126.303 11.4855 126.619 11.6614 126.889 11.8976C127.158 12.1338 127.373 12.4248 127.521 12.7511C127.997 13.637 127.997 13.7037 127.997 14.4563C127.997 15.8019 127.997 17.1451 127.997 18.5741H128.924V20.4532H123.972C123.908 19.8983 123.972 19.2862 123.941 18.6336H125.04C125.085 18.5218 125.116 18.4051 125.133 18.2859C125.133 17.1348 125.133 15.9853 125.133 14.8374C125.133 13.5918 124.139 12.9607 122.988 13.4798C122.741 13.5663 122.52 13.7142 122.346 13.9096C122.172 14.1051 122.051 14.3416 121.994 14.5968C121.658 15.9186 121.901 17.2166 121.782 18.5693H122.938V20.4746H118.036V18.6003H119.139V9.54782Z" fill="white"/>
<path d="M173.236 30.9082L172.126 31.2464C172.042 30.5462 172.107 29.8555 172.081 29.1244H175.894V30.3914C176.153 30.1318 176.311 29.9984 176.437 29.8436C176.844 29.3482 177.39 29.1577 177.993 28.991C178.531 28.8636 179.093 28.8784 179.623 29.0339C181.206 29.3697 182.044 30.2771 182.087 32.1466C182.121 33.4851 182.087 34.8259 182.087 36.1953L182.995 36.2454V38.3459H178.084V36.2573L179.235 36.193C179.235 34.8354 179.211 33.497 179.235 32.1585C179.238 31.9605 179.18 31.7662 179.068 31.6027C178.956 31.4392 178.796 31.3147 178.61 31.2464C177.29 30.6676 176.163 31.556 176.132 32.7039C176.101 33.8519 176.132 34.995 176.132 36.181H177.226C177.27 36.294 177.301 36.4114 177.319 36.5311C177.319 36.9265 177.335 37.3242 177.319 37.7219C177.302 38.1197 177.102 38.3531 176.685 38.3626C176.051 38.3793 175.415 38.3626 174.778 38.3626H172.133V36.2191H173.236V30.9082Z" fill="white"/>
<path d="M97.9296 13.3537H96.8143V11.508H100.804C100.818 11.6914 100.832 11.8795 100.847 12.0677C100.904 12.0796 100.987 12.1201 101.013 12.0962C101.325 11.7881 101.699 11.5495 102.11 11.3964C102.52 11.2433 102.959 11.179 103.396 11.2079C104.111 11.2603 104.826 11.1555 105.482 11.6509C106.137 12.1463 106.79 12.9441 106.795 13.7157C106.795 15.2995 106.795 16.8856 106.795 18.5528L107.948 18.6314V20.4461H103.01V18.6218H104.166C104.166 17.3572 104.188 16.1759 104.154 14.997C104.152 14.6241 104.056 14.2577 103.873 13.9325C103.654 13.5895 103.356 13.2323 102.815 13.349C102.467 13.3794 102.117 13.3794 101.769 13.349C101.559 13.5662 101.374 13.8058 101.216 14.0635C101.047 14.3826 100.808 14.6731 100.82 15.0923C100.849 16.2355 100.82 17.3786 100.82 18.5623H101.955V20.5033C100.46 20.5033 98.9639 20.5033 97.4649 20.5033C96.9525 20.5033 96.7881 20.3175 96.7714 19.8031C96.7595 19.4459 96.7714 19.0886 96.7714 18.6504L97.9225 18.5647L97.9296 13.3537Z" fill="white"/>
<path d="M170.179 36.224H171.332V38.3103H167.819C167.805 38.046 167.791 37.7792 167.776 37.4934C167.159 37.4934 166.823 38.046 166.235 38.2079C165.446 38.4294 164.69 38.3246 163.925 38.3413C163.596 38.3413 163.268 38.0388 162.924 37.9126C161.971 37.5554 161.8 36.698 161.604 35.8597C161.598 35.7415 161.598 35.623 161.604 35.5048C161.366 33.9091 162.586 33.0518 164.059 32.6254C165.212 32.292 166.37 32.5421 167.564 32.3635C167.551 32.205 167.551 32.0456 167.564 31.8871C167.664 31.3179 167.359 31.0726 166.876 30.8726C166.598 30.7478 166.294 30.6938 165.99 30.7154C165.687 30.737 165.393 30.8336 165.136 30.9964C164.924 31.1274 164.824 31.4727 164.705 31.7109C164.656 31.8579 164.559 31.9838 164.429 32.0675C164.299 32.1512 164.143 32.1876 163.99 32.1706C163.396 32.1444 162.798 32.1706 162.128 32.1706C162.038 31.5752 161.969 30.9798 162.319 30.4272C162.767 29.759 163.456 29.2891 164.242 29.115C164.593 29.0221 164.936 28.8197 165.322 28.8339C165.798 28.8482 166.275 28.772 166.752 28.8506C167.784 29.0197 168.823 29.2078 169.592 30.0414C169.784 30.2261 169.936 30.4482 170.039 30.694C170.141 30.9399 170.192 31.2041 170.188 31.4704C170.164 32.9946 170.179 34.5498 170.179 36.224ZM167.557 34.3188C166.89 34.3188 166.306 34.3188 165.722 34.3188C165.188 34.3188 164.817 34.5927 164.435 34.9189C164.315 35.0195 164.231 35.1567 164.197 35.3095C164.163 35.4622 164.179 35.6221 164.245 35.7644C164.31 35.9182 164.405 36.0574 164.525 36.1736C164.645 36.2898 164.787 36.3807 164.943 36.4408C166.43 36.8052 167.502 35.9549 167.557 34.3164V34.3188Z" fill="white"/>
<path d="M70.0876 44.7952C69.7587 44.7952 69.4895 44.7952 69.2178 44.7952C68.5624 44.7738 68.448 44.6499 68.4194 43.9593C68.4194 43.8021 68.4194 43.6425 68.4194 43.3687H74.1032V44.7738H71.9941C71.9941 47.1554 71.9298 49.4417 72.0227 51.7304C72.0504 52.264 72.2138 52.7817 72.4973 53.2347C72.7809 53.6877 73.1753 54.0609 73.6432 54.3192C73.8854 54.507 74.1884 54.5986 74.494 54.5765C74.8901 54.5346 75.2895 54.5346 75.6856 54.5765C76.6388 54.6384 77.2751 54.1382 77.7112 53.3547C78.168 52.5787 78.4144 51.6971 78.4262 50.7969C78.4262 48.8225 78.4262 46.8482 78.4262 44.831H76.3314V43.402H81.7173V44.8024H80.0967C80.0967 46.9458 80.0967 49.025 80.0967 51.1136C80.074 51.6426 80.0095 52.169 79.9037 52.6879C79.694 53.9834 78.9195 54.7908 77.9662 55.522C77.2715 56.058 76.4003 56.3131 75.5259 56.2364C74.6823 56.1793 73.8387 56.2912 72.9998 55.9983C72.0322 55.6696 70.4737 53.8548 70.2807 52.7045C70.0185 51.1374 70.1543 49.5894 70.0972 48.0366C70.0566 46.9792 70.0876 45.917 70.0876 44.7952Z" fill="white"/>
<path d="M92.2652 14.8563C92.1699 14.3657 92.3629 13.9894 92.1175 13.5536C91.841 13.0606 91.312 13.1297 90.9259 12.9415C90.6733 12.8177 90.1728 13.1178 89.8225 13.3035C89.6507 13.3958 89.5152 13.5435 89.4382 13.7225C89.3611 13.9016 89.3471 14.1014 89.3983 14.2895H86.8007C86.734 13.625 86.653 12.9558 87.1201 12.4319C87.7115 11.7365 88.5549 11.3039 89.4651 11.2292C90.3762 11.1756 91.2897 11.1756 92.2009 11.2292C92.9451 11.3003 93.6428 11.6229 94.1789 12.1437C94.4318 12.3728 94.628 12.6575 94.7521 12.9753C94.8762 13.2931 94.9247 13.6354 94.8938 13.9751C94.8366 14.723 94.8819 15.4803 94.8819 16.2329V18.5693L96.0401 18.6264V20.4555H92.5154C92.4988 20.184 92.4845 19.9172 92.4702 19.6505C92.4082 19.6505 92.3296 19.6076 92.2986 19.6338C91.4645 20.3197 90.516 20.8246 89.4388 20.7151C88.6536 20.6786 87.896 20.4146 87.2583 19.9553C86.0906 19.0527 86.305 17.8381 86.305 16.6521C86.7507 15.959 87.2368 15.3088 88.0662 15.0302C89.1695 14.6634 90.5065 14.461 91.4359 14.5539C91.7218 14.6265 91.9997 14.7279 92.2652 14.8563ZM92.1627 16.4496C91.3525 16.4949 90.5112 16.3377 89.6962 16.6878C89.2839 16.864 88.8216 17.5595 88.9122 17.9215C88.9884 18.2382 89.9727 18.9574 90.3873 18.8336C90.9736 18.655 91.5455 18.4192 91.8863 17.881C92.1413 17.4713 92.4201 17.0379 92.1627 16.4496Z" fill="white"/>
<path d="M95.4393 34.576H88.9763C88.8905 35.6906 89.7103 36.3551 90.6444 36.4813C91.3832 36.5718 92.0124 36.3836 92.346 35.7382C92.5414 35.3596 92.7249 35.2619 93.1086 35.2619C93.7401 35.2881 94.374 35.2619 95.0413 35.2619C95.1177 35.4946 95.1313 35.7433 95.0807 35.983C95.03 36.2226 94.917 36.4446 94.753 36.6266C94.038 37.5078 93.2325 38.377 91.9194 38.3699C91.6811 38.3699 91.4428 38.5771 91.1854 38.5866C90.0576 38.6345 88.941 38.346 87.9777 37.7578C86.9363 37.1196 86.4454 36.0026 86.0712 34.8785C85.9068 34.4021 86.0712 32.0205 86.3572 31.5442C87.1222 30.3391 88.0135 29.2531 89.5863 29.0674C89.8246 29.0388 90.063 28.8673 90.3227 28.8459C91.4094 28.7459 92.408 29.1055 93.3445 29.5889C94.0261 29.939 94.9841 31.3609 95.108 32.0563C95.1843 32.4731 95.1557 32.9065 95.2081 33.3281C95.2463 33.7091 95.3487 34.0687 95.4393 34.576ZM88.676 32.6493H92.4413C92.3794 31.5561 91.9409 30.9607 90.9638 30.8083C90.6135 30.7535 90.2083 30.9893 89.8413 31.1227C89.2241 31.3513 89.2098 32.0182 88.676 32.6493Z" fill="white"/>
<path d="M138.505 16.714H132.363C132.113 17.2331 132.363 17.6666 132.578 18.0334C132.888 18.5573 133.545 18.5883 134.051 18.7478C134.389 18.8598 134.861 18.5406 135.266 18.4025C135.797 18.2239 135.652 17.7404 135.981 17.4356H138.421C138.659 17.9262 138.369 18.4644 138.135 18.7621C137.22 19.9386 136.031 20.7103 134.453 20.746C133.548 20.7736 132.647 20.6088 131.81 20.2625C130.69 19.7862 130.028 18.9122 129.682 17.7809C129.315 16.5282 129.31 15.1976 129.666 13.9418C129.764 13.5401 129.972 13.1734 130.266 12.882C130.926 12.2532 131.486 11.5268 132.492 11.3506C133.166 11.2315 134.985 11.2029 135.692 11.3935C137.058 11.7602 137.794 12.6843 138.264 13.9608C138.583 14.8373 138.414 15.7137 138.505 16.714ZM134.785 13.1201H133.355C132.859 13.6512 132.208 14.1061 132.297 14.9682H135.871C135.902 14.0728 135.292 13.6274 134.785 13.1201Z" fill="white"/>
<path d="M164.898 16.6928H158.623C158.247 17.0858 158.609 17.4549 158.768 17.7145C159.007 18.0884 159.286 18.4814 159.791 18.6052C160.248 18.7195 160.623 18.9053 161.164 18.6433C161.371 18.567 161.56 18.4499 161.721 18.299C161.882 18.148 162.011 17.9662 162.1 17.7645C162.157 17.6381 162.254 17.5337 162.375 17.4675C162.497 17.4012 162.637 17.3767 162.775 17.3977C163.287 17.4382 163.806 17.3977 164.321 17.3977C164.455 17.4058 164.589 17.421 164.722 17.443C164.619 18.5862 164.219 19.4602 163.17 20.027C161.559 20.8987 159.486 21.0202 157.901 20.0485C156.914 19.4412 155.873 18.1932 155.868 17.0786C155.868 16.7928 155.685 16.5142 155.649 16.2236C155.513 15.171 155.887 14.2231 156.3 13.2823C156.726 12.2987 157.572 11.7843 158.502 11.4604C159.672 11.0716 160.936 11.0633 162.112 11.4366C163.556 11.8915 164.307 12.9251 164.71 14.3231C164.929 15.0927 164.993 15.8982 164.898 16.6928ZM158.525 14.9852H162.017C162.107 14.7293 162.117 14.4522 162.046 14.1904C161.976 13.9285 161.828 13.6942 161.621 13.5181C161.032 12.9703 160.27 13.1109 159.557 13.1371C158.842 13.8515 158.842 13.8515 158.525 14.9852Z" fill="white"/>
<path d="M120.848 33.8782C120.793 34.3879 120.831 34.9356 120.646 35.5191C120.25 36.7623 119.309 37.4244 118.353 38.1198C117.848 38.0603 117.438 38.489 116.904 38.3794C116.549 38.3412 116.192 38.3364 115.836 38.3651C113.57 38.3294 112.288 37.3387 111.375 35.2095C111.361 35.1762 111.316 35.1452 111.318 35.1166C111.449 34.083 111.175 33.0565 111.518 31.992C112.05 30.3558 113.213 29.5556 114.714 29.0912C115.249 28.905 115.817 28.8304 116.382 28.8721C116.904 28.9116 117.42 29.0099 117.919 29.165C118.52 29.3551 119.073 29.6709 119.542 30.0914C120.282 30.7953 120.745 31.7407 120.848 32.7565C120.872 33.1066 120.848 33.4709 120.848 33.8782ZM117.962 33.902C118.047 33.1619 117.903 32.4136 117.547 31.7586C117.057 30.8059 115.441 30.5987 114.661 31.7109C114.066 32.5588 114.085 33.7615 114.342 34.8761C114.46 35.404 114.78 35.8649 115.233 36.1598C115.569 36.3979 116.034 36.6694 116.501 36.3979C117.006 36.0883 117.724 35.9788 117.75 35.1762C118.227 34.7522 117.874 34.1997 117.962 33.902Z" fill="white"/>
<path d="M145.008 11.908C145.189 11.7008 145.289 11.4769 145.404 11.4698C145.997 11.4341 146.595 11.4531 147.31 11.4531C147.31 12.27 147.31 13.0893 147.31 13.9062C147.321 13.9919 147.312 14.0789 147.284 14.1607C147.256 14.2425 147.21 14.3169 147.149 14.3783C147.089 14.4398 147.015 14.4866 146.933 14.5154C146.852 14.5442 146.765 14.5541 146.679 14.5444C146.128 14.5635 145.575 14.5444 145.027 14.5444C144.789 14.211 145.046 13.799 144.718 13.4418C144.389 13.0845 143.922 13.225 143.602 12.9011C143.419 12.713 142.454 13.1941 142.32 13.4632C142.187 13.7323 142.585 14.4301 143.002 14.5397C143.389 14.6799 143.796 14.7602 144.208 14.7778C144.922 14.7374 145.511 15.116 146.145 15.3018C147.12 15.5876 147.813 17.2761 147.494 18.3002C147.256 19.06 146.974 19.8959 146.224 20.2412C145.473 20.5866 144.584 20.8843 143.7 20.7342C142.968 20.6104 142.232 20.4127 141.679 19.753C141.631 20.0055 141.588 20.2293 141.541 20.4675H139.437V17.1999H141.803C141.784 17.9144 142.07 18.4717 142.797 18.7456C143.414 18.9837 144.126 18.8551 144.493 18.4265C144.765 18.1073 144.746 17.8692 144.448 17.531C144.069 17.0999 143.535 17.0546 143.018 16.9332C142.473 16.8141 141.905 16.7593 141.372 16.5998C140.294 16.2782 139.51 15.4423 139.439 14.4825C139.38 13.9315 139.462 13.3746 139.677 12.8637C139.891 12.3527 140.232 11.9044 140.666 11.5603C140.854 11.4079 141.16 11.4103 141.381 11.2936C141.793 11.0792 142.334 11.4555 142.682 10.9863C143.085 11.2959 143.583 11.1268 144.005 11.2507C144.381 11.3507 144.691 11.6865 145.008 11.908Z" fill="white"/>
<path d="M137.632 38.346C136.619 38.4655 135.596 38.2225 134.744 37.6601C133.552 36.8932 132.761 35.912 132.764 34.4283C132.764 33.952 132.764 33.4756 132.764 32.9993C132.764 31.7013 133.753 29.7032 135.623 29.3078C136.124 29.2007 136.605 28.8577 137.091 28.8649C138.457 28.8839 139.787 29.103 140.852 30.1152C141.472 30.7034 142.044 31.306 142.184 32.1801C142.252 32.6375 142.29 33.0989 142.299 33.5614C142.333 34.0371 142.333 34.5146 142.299 34.9903C142.253 35.4309 141.982 35.831 141.791 36.2002C141.455 36.7647 141.004 37.2518 140.466 37.6291C140.072 37.9431 139.615 38.1695 139.127 38.2931C138.638 38.4167 138.129 38.4348 137.632 38.346ZM139.465 33.709C139.436 32.6707 139.436 32.6707 139.007 31.8657C138.815 31.4799 138.48 31.1837 138.073 31.0394C137.667 30.8951 137.22 30.9138 136.827 31.0917C136.233 31.3298 135.65 32.2277 135.635 32.9469C135.621 33.4232 135.635 33.8996 135.635 34.3759C135.635 35.1832 136.403 36.2288 137.17 36.4383C137.432 36.503 137.707 36.4856 137.959 36.3883C138.28 36.268 138.571 36.08 138.812 35.8371C139.053 35.5942 139.24 35.3021 139.358 34.9808C139.484 34.5855 139.436 34.1306 139.465 33.709Z" fill="white"/>
<path d="M114.633 15.2233C114.724 14.6707 114.521 14.2468 114.285 13.7943C114.018 13.2918 113.472 13.2894 113.093 13.1918C112.715 13.0941 112.081 13.387 111.849 13.7157C111.618 14.0444 111.118 14.4135 111.282 15.0304C111.347 15.2685 111.12 15.5877 111.075 15.8758C111.03 16.164 111.552 17.9478 111.79 18.1884C111.966 18.3717 112.186 18.5069 112.429 18.5813C113.465 18.8481 114.082 18.5432 114.595 17.5596C114.642 17.4304 114.678 17.2974 114.702 17.1619H116.966C117.19 17.955 116.828 18.6647 116.435 19.2434C116.235 19.5727 115.969 19.8573 115.654 20.0793C115.339 20.3014 114.982 20.4563 114.604 20.5342C114.008 20.6527 113.402 20.7196 112.793 20.7343C110.625 20.7748 109.338 19.5435 108.551 17.8764C108.515 16.8856 107.805 15.9306 108.43 14.8994C108.575 14.6612 108.494 14.323 108.582 14.0158C108.947 12.7416 109.738 11.9486 110.93 11.4341C111.158 11.3062 111.412 11.2321 111.673 11.2174C111.95 11.2389 112.228 11.2389 112.505 11.2174C113.432 11.1079 114.173 11.4079 114.802 12.2748L114.919 11.5056H117.002V15.2304L114.633 15.2233Z" fill="white"/>
<path d="M81.8076 47.2008H85.113V48.3725C85.3527 48.0644 85.6081 47.7686 85.878 47.4865C86.0519 47.3477 86.2434 47.2324 86.4476 47.1436C87.3412 46.6673 88.3088 46.9269 89.2167 46.9864C89.8959 47.0293 90.3892 47.7199 90.792 48.2701C90.996 48.5882 91.0952 48.9621 91.0756 49.3394C91.0375 51.0447 91.0589 52.7475 91.0589 54.5361H92.4602V55.9412H87.7916V54.6004H89.3907C89.3907 53.069 89.4145 51.5781 89.374 50.0753C89.3476 49.7053 89.2153 49.3506 88.9927 49.0536C88.1277 47.8795 86.2545 48.101 85.5777 49.4204C85.1488 50.2611 85.1011 50.3945 85.1011 51.0089C85.1011 52.1569 85.1011 53.3048 85.1011 54.5504C85.4228 54.5504 85.7279 54.5504 86.0329 54.5504C86.5548 54.5694 86.7311 54.729 86.7669 55.2124C86.7836 55.4506 86.7669 55.6745 86.7669 55.9412H81.8195V54.567H83.3852V48.3749H81.8076V47.2008Z" fill="white"/>
<path d="M102.736 35.0309C102.736 35.4453 102.736 35.7597 102.736 36.074C102.736 37.4435 101.819 38.3699 100.453 38.3604C99.8455 38.3604 99.2402 38.4342 98.6349 38.1532C98.2679 37.9793 97.7555 37.9579 97.5816 37.5864C97.3552 37.0934 96.9739 36.6623 97.0001 36.0359C97.0549 34.7689 97.0168 33.4995 97.0168 32.2254V31.2727C96.869 31.2537 96.7594 31.2299 96.6498 31.2275C95.5893 31.1918 95.5893 31.1918 95.5869 30.1748C95.5869 29.1102 95.5869 29.1102 97.0168 29.0316V27.517L99.8575 26.5977V29.065H102.212V31.2084H99.8765C99.8765 32.7827 99.8765 34.3188 99.8765 35.8526C99.8709 35.9294 99.8813 36.0065 99.9072 36.0791C99.933 36.1516 99.9736 36.218 100.027 36.274C100.079 36.33 100.143 36.3744 100.214 36.4044C100.285 36.4343 100.362 36.4492 100.439 36.448C100.818 36.4956 100.997 36.2574 101.063 35.9216C101.087 35.8073 101.047 35.6835 101.063 35.5668C101.135 35.2429 101.302 35.0071 101.678 35.0214C102.002 35.0404 102.319 35.0309 102.736 35.0309Z" fill="white"/>
<path d="M146.824 36.2171H148.016V37.7699C148.024 37.8473 148.015 37.9256 147.99 37.9992C147.965 38.0729 147.924 38.1401 147.87 38.1961C147.816 38.2522 147.75 38.2957 147.677 38.3237C147.604 38.3517 147.527 38.3635 147.449 38.3582C146.062 38.3772 144.675 38.3844 143.288 38.3415C143.112 38.3415 142.823 38.0295 142.797 37.8342C142.753 37.3123 142.745 36.7878 142.773 36.2648H143.8C144.003 36.0671 144.055 30.6442 143.924 27.41C143.7 27.4314 143.474 27.4314 143.25 27.41C143.172 27.4017 143.096 27.3768 143.028 27.337C142.961 27.2971 142.902 27.2432 142.857 27.1789C142.812 27.1146 142.781 27.0414 142.767 26.9641C142.752 26.8869 142.754 26.8075 142.773 26.7312C142.845 26.2549 142.535 25.6809 143.092 25.3261C143.236 25.271 143.391 25.2538 143.543 25.2761C144.611 25.2761 145.688 25.2761 146.817 25.2761L146.824 36.2171Z" fill="white"/>
<path d="M116.282 51.9404H109.521C109.111 52.6787 109.702 53.2217 109.974 53.7766C110.265 54.372 110.97 54.5768 111.559 54.7673C112.014 54.8832 112.494 54.8574 112.934 54.6935C113.41 54.5268 113.944 54.3386 114.252 53.8766C114.356 53.655 114.436 53.4226 114.49 53.1836H116.239C116.082 54.0328 115.619 54.7951 114.938 55.327C114.306 55.8578 113.52 56.1695 112.696 56.2153C111.927 56.2682 111.155 56.2007 110.408 56.0153C109.93 55.9173 109.489 55.6908 109.13 55.3603C108.487 54.7125 107.751 54.129 107.619 53.1359C107.574 52.7977 107.507 52.4595 107.496 52.119C107.476 51.4855 107.362 50.8186 107.517 50.2137C107.658 49.6218 107.92 49.0655 108.287 48.5798C108.653 48.0941 109.117 47.6895 109.648 47.3915C110.187 47.0335 110.83 46.8659 111.475 46.9152C112.19 47.0009 112.905 46.8985 113.649 47.1033C115.017 47.5058 115.605 48.4751 116.082 49.5945C116.387 50.3161 116.37 51.0949 116.282 51.9404ZM114.376 50.7138C114.614 49.523 113.449 48.4775 112.624 48.3846C111.985 48.3132 111.259 48.206 110.718 48.6371C110.079 49.1515 109.421 49.7183 109.454 50.7138H114.376Z" fill="white"/>
<path d="M155.403 31.2179H154.012V29.1054H155.382V27.5169L158.025 26.6714V29.0768C158.74 29.0768 159.364 29.0768 159.991 29.0768C160.429 29.0768 160.623 29.2816 160.656 29.6889C160.656 29.7675 160.656 29.8484 160.656 29.927C160.67 30.9654 160.827 31.2988 159.357 31.2202C158.931 31.1964 158.502 31.2202 158.034 31.2202V35.4404C158.034 35.519 158.003 35.6191 158.034 35.6786C158.204 35.9382 158.104 36.3931 158.528 36.4574C158.952 36.5217 159.152 36.2954 159.243 35.881C159.334 35.6058 159.456 35.3415 159.605 35.0927H161.118C161.14 35.8072 161.137 36.4812 160.813 37.1909C160.458 37.9673 159.796 38.2293 159.145 38.3293C158.368 38.4484 157.539 38.4889 156.745 38.1459C156.03 37.8387 155.42 37.1314 155.415 36.3431C155.403 34.6736 155.403 33.0088 155.403 31.2179Z" fill="white"/>
<path d="M153.554 17.4311H155.132C155.217 18.0015 155.152 18.5841 154.944 19.122C154.627 19.8865 153.974 20.4747 153.187 20.5009C152.711 20.5152 152.234 20.4724 151.757 20.5009C151.432 20.5297 151.104 20.4783 150.803 20.3513C150.502 20.2242 150.236 20.0254 150.03 19.7722C149.841 19.5674 149.634 19.3816 149.443 19.1934V13.3823H148.047V11.4651H149.446C149.446 10.9888 149.446 10.603 149.446 10.2124C149.446 9.78612 149.644 9.62417 150.051 9.52415C150.714 9.35982 151.355 9.1026 152.043 8.87158V11.4247H154.665V13.3037H152.089C152.048 13.9968 152.072 14.6565 152.067 15.3138C152.067 16.0688 152.067 16.8214 152.067 17.5763C152.067 18.5623 152.067 18.5623 153.159 18.5671C153.29 18.1955 153.423 17.8145 153.554 17.4311Z" fill="white"/>
<path d="M104.605 30.9823C104.538 30.9765 104.471 30.9765 104.404 30.9823C104.166 31.0252 103.909 31.1681 103.718 31.1014C103.349 30.968 103.461 30.5822 103.451 30.2774C103.451 30.1202 103.451 29.9606 103.451 29.801C103.473 29.2866 103.639 29.0866 104.123 29.0866C105.146 29.0723 106.17 29.0866 107.279 29.0866V30.5155C108.158 28.9365 109.554 28.9746 111.039 29.1485V31.4801H109.809C108.458 31.4801 107.531 32.3898 107.505 33.7473C107.491 34.538 107.505 35.3311 107.505 36.2075L108.899 36.2695V38.3867C107.317 38.3867 105.706 38.3867 104.095 38.3867C104.009 38.397 103.922 38.3877 103.84 38.3595C103.758 38.3314 103.684 38.2851 103.623 38.2241C103.562 38.1631 103.515 38.0891 103.486 38.0075C103.458 37.926 103.448 37.839 103.458 37.7532C103.439 37.2769 103.458 36.8005 103.458 36.2552H104.65C104.617 34.4237 104.69 32.7018 104.605 30.9823Z" fill="white"/>
<path d="M125.643 55.2958C125.626 55.5125 125.612 55.7006 125.593 55.9388H124.211V52.938H125.529C125.574 53.7144 126.153 54.2455 126.794 54.5194C127.435 54.7932 128.145 55.1433 128.848 54.5717C128.944 54.4932 129.179 54.6075 129.308 54.5456C129.512 54.4301 129.677 54.2571 129.783 54.0482C129.889 53.8394 129.931 53.604 129.904 53.3714C129.842 53.0428 129.291 52.4617 128.951 52.4188C128.236 52.3259 127.502 52.3021 126.792 52.164C125.838 51.9758 124.854 51.7281 124.408 50.6921C123.777 49.2036 124.192 47.808 125.838 47.184C126.827 46.8077 128.326 46.8435 129.325 47.184C129.464 47.2317 129.596 47.2973 129.718 47.3793C129.839 47.4804 129.952 47.5903 130.056 47.708C130.099 47.5008 130.123 47.3912 130.157 47.2317H131.527V49.9943H130.247C130.135 49.7013 129.99 49.4217 129.816 49.1608C129.632 48.9226 129.318 48.8154 129.101 48.6035C128.81 48.3129 128.465 48.3796 128.124 48.3653C127.783 48.351 127.364 48.2605 127.066 48.3939C126.813 48.5106 126.456 48.4367 126.274 48.8845C125.907 49.7943 126.124 50.373 127.087 50.504C127.802 50.5992 128.546 50.5921 129.244 50.766C129.942 50.9398 130.674 51.0184 131.126 51.6495C131.536 52.233 131.884 52.8403 131.796 53.6358C131.706 54.1574 131.483 54.6472 131.149 55.0583C130.815 55.4695 130.382 55.7882 129.89 55.9841C128.936 56.3127 127.831 56.2222 126.749 56.0198C126.255 55.9245 126.115 55.441 125.643 55.2958Z" fill="white"/>
<path d="M166.804 13.3538H165.687V11.5104H169.476V12.9084C170.381 11.1246 171.759 11.1103 173.236 11.258V13.5967C172.791 13.5718 172.345 13.5718 171.899 13.5967C170.996 13.692 170.219 14.0159 169.874 14.9614C169.824 15.0995 169.712 15.2305 169.709 15.3662C169.695 16.4261 169.709 17.4835 169.709 18.5838H171.096V20.4152C171.113 20.3986 171.096 20.4319 171.058 20.4534C171.028 20.4757 170.993 20.4889 170.956 20.4915H165.694V18.6267L166.804 18.5552V13.3538Z" fill="white"/>
<path d="M97.298 47.2012H101.747V48.3443H100.353C100.332 48.558 100.346 48.7737 100.396 48.9826C101.154 50.5717 101.778 52.2216 102.26 53.9149C102.277 53.966 102.31 54.0098 102.355 54.0393C102.401 54.0687 102.454 54.082 102.508 54.0771C102.561 54.0721 102.612 54.0491 102.651 54.0119C102.69 53.9746 102.715 53.9253 102.722 53.872C103.053 52.4669 103.754 51.2023 104.228 49.8543C104.395 49.3779 104.612 48.9159 104.819 48.4253H103.258C103.234 48.0157 103.215 47.6441 103.191 47.2345H107.672V48.3515H106.645C105.627 50.9046 104.621 53.4219 103.604 55.9726H101.38L98.2822 48.3896H97.2837L97.298 47.2012Z" fill="white"/>
<path d="M148.731 36.2196H149.884V31.0324C149.759 30.9972 149.628 30.9827 149.498 30.9896C148.783 31.1206 148.757 31.1087 148.731 30.4513C148.731 30.3727 148.731 30.2942 148.731 30.2132C148.731 29.0867 148.731 29.0819 149.822 29.0771H152.749V36.1886H153.974C153.974 36.7245 153.974 37.2246 153.974 37.7247C153.983 37.8104 153.974 37.8972 153.945 37.9787C153.917 38.0601 153.871 38.1342 153.81 38.1953C153.749 38.2564 153.675 38.3029 153.594 38.3316C153.512 38.3602 153.425 38.3701 153.34 38.3606C152.231 38.3749 151.121 38.3606 150.003 38.3606C149.765 38.3738 149.526 38.3738 149.288 38.3606C149.211 38.3625 149.135 38.3482 149.064 38.3189C148.993 38.2895 148.929 38.2456 148.875 38.19C148.822 38.1344 148.781 38.0683 148.755 37.996C148.729 37.9237 148.718 37.8467 148.723 37.77C148.731 37.2961 148.731 36.8197 148.731 36.2196Z" fill="white"/>
<path d="M120.372 54.5671H122.242V55.9365H117.064V54.6076H118.279C118.33 54.5707 118.377 54.5292 118.42 54.4837C118.444 54.4554 118.459 54.4206 118.463 54.3837C118.463 52.4046 118.463 50.4255 118.463 48.4059H117.09V47.2151H120.353V48.2868C121.184 46.8578 122.388 46.9007 123.649 46.9555V48.575C123.341 48.3942 122.987 48.3076 122.631 48.3258C122.275 48.344 121.932 48.4662 121.644 48.6774C120.834 49.2466 120.326 50.0397 120.362 51.1114C120.4 52.2164 120.372 53.3286 120.372 54.5671Z" fill="white"/>
<path d="M92.9893 55.9462V54.5887H94.5812V48.3822H93.0107V47.1914H96.266V54.5529C96.6473 54.5529 96.981 54.5387 97.3337 54.5529C97.7531 54.5744 97.9342 54.7601 97.9676 55.1936C97.9843 55.4318 97.9676 55.6699 97.9676 55.9343L92.9893 55.9462Z" fill="white"/>
<path d="M135.819 54.5312C136.057 54.5455 136.174 54.5574 136.295 54.5598C137.544 54.5741 137.544 54.5741 137.506 55.9887H132.597V54.5955H134.146V48.389H132.583V47.1982H135.826L135.819 54.5312Z" fill="white"/>
<path d="M149.963 25.2856H152.742V28.0983C152.329 28.0983 151.869 28.1197 151.409 28.1245C150.95 28.1293 150.47 28.1245 149.963 28.1245V25.2856Z" fill="white"/>
<path d="M94.3955 45.2362V43.4167C94.9937 43.3 95.6085 43.4167 96.2591 43.3452V45.2338C95.6396 45.2966 95.0153 45.2974 94.3955 45.2362Z" fill="white"/>
<path d="M133.977 45.2339V43.4048H135.803V45.2339H133.977Z" fill="white"/>
</g>
<defs>
<clipPath id="clip0_60:516">
<rect width="183" height="70" fill="white"/>
</clipPath>
</defs>
</svg>
